<svg xmlns="http://www.w3.org/2000/svg" xmlns:xlink="http://www.w3.org/1999/xlink" width="28" height="28" viewBox="0 0 28 28">
  <defs>
    <clipPath id="clip-path">
      <path id="Path_2461" data-name="Path 2461" d="M14-24.374a14,14,0,0,0-14,14H0a14,14,0,0,0,14,14h0a14,14,0,0,0,14-14h0A14,14,0,0,0,14-24.374Z" transform="translate(0 24.374)" fill="none"/>
    </clipPath>
  </defs>
  <g id="Group_6200" data-name="Group 6200" clip-path="url(#clip-path)">
    <g id="Group_6199" data-name="Group 6199" transform="translate(9.603 6.179)">
      <path id="Path_2460" data-name="Path 2460" d="M1.1,1.671A9.361,9.361,0,0,1-1.7,2.2c-2.386,0-3.733-1.083-3.733-2.828a4.221,4.221,0,0,1,1.06-2.63A27.215,27.215,0,0,1-.023-3.787L.442-6.04a18.151,18.151,0,0,0-2.5.441A2.923,2.923,0,0,1-4.971-7.984a3.207,3.207,0,0,1,2.5-1.171A5.841,5.841,0,0,1-.42-8.714L-.089-9.2a20.417,20.417,0,0,0-2.142-2.032A3.922,3.922,0,0,0-6.3-7.343,3.45,3.45,0,0,0-4.729-4.515l-.087.065A5.844,5.844,0,0,0-7.424.213c0,2.762,2.121,4.2,5.258,4.2C-.752,3.593.309,2.886,1.37,2.2Z" transform="translate(7.424 11.232)" fill="#fff"/>
    </g>
  </g>
</svg>
