<svg xmlns="http://www.w3.org/2000/svg" width="31.001" height="31.001" viewBox="0 0 31.001 31.001">
  <g id="Group_15246" data-name="Group 15246" transform="translate(-801.378 -2890.188)">
    <g id="Group_6308" data-name="Group 6308" transform="translate(809.613 2905.689)">
      <path id="Path_2522" data-name="Path 2522" d="M0,0A7.265,7.265,0,0,1,7.265-7.265,7.264,7.264,0,0,1,14.528,0,7.264,7.264,0,0,1,7.265,7.265,7.265,7.265,0,0,1,0,0Z" fill="none" stroke="#fff" stroke-linejoin="round" stroke-width="1"/>
    </g>
    <g id="Group_6309" data-name="Group 6309" transform="translate(829.479 2914.689)">
      <path id="Path_2523" data-name="Path 2523" d="M0,0H-4.8M-20.4-18h-4.8m8.4,2.4h-6M-24-20.4H-4.8V-24l7.2,6-7.2,6v-3.6M-8.4-2.4h6m1.2,4.8H-20.4V6l-7.2-6,7.2-6v3.6m7.8-9v-1.2m0,7.2V-6.6m-1.8,0H-12a1.2,1.2,0,0,0,1.2-1.2A1.2,1.2,0,0,0-12-9h-1.2a1.2,1.2,0,0,1-1.2-1.2,1.2,1.2,0,0,1,1.2-1.2h2.4" fill="none" stroke="#fff" stroke-linecap="round" stroke-linejoin="round" stroke-width="1"/>
    </g>
  </g>
</svg>
