<svg xmlns="http://www.w3.org/2000/svg" width="278.356" height="285.073" viewBox="0 0 278.356 285.073">
  <g id="Group_15241" data-name="Group 15241" transform="translate(27.753 -4506.406)">
    <path id="Path_2374" data-name="Path 2374" d="M5.862,7.131V47.216H-34.223c0-6.682,6.342-13.363,12.68-13.363H-7.5V19.811C-7.5,13.472-.818,7.131,5.862,7.131ZM-7.5-41.629H5.862V-1.545C-.818-1.545-7.5-7.886-7.5-14.224V-28.268H-21.543c-6.338,0-12.679-6.681-12.679-13.361ZM14.417-6.655l18.9-18.9c4.724,4.724,4.964,13.933.483,18.413L23.865,2.793,33.8,12.724c4.481,4.481,4.241,13.689-.483,18.414l-18.9-18.9L4.97,2.793Z" transform="translate(39.794 4633.75)" fill="none" stroke="#3da3db" stroke-width="0.8"/>
    <path id="Path_2375" data-name="Path 2375" d="M7.689,3.845-18.6,30.133-44.887,3.845-18.6-22.444Z" transform="translate(19.833 4632.701)" fill="none" stroke="#ddad00" stroke-width="0.8"/>
    <path id="Path_2376" data-name="Path 2376" d="M10.654,6.509V34.156H38.3ZM-43.22,131.555l9.447-9.448,9.448,9.448,18.9,18.9c-4.725,4.724-13.933,4.964-18.414.483L-33.773,141l-9.93,9.931c-4.482,4.481-13.69,4.241-18.414-.483ZM-5.507,6.626l-18.9,18.9L-33.85,34.97-43.3,25.521l-18.9-18.9C-57.47,1.9-48.262,1.662-43.781,6.144l9.931,9.931,9.931-9.931C-19.438,1.662-10.23,1.9-5.507,6.626ZM54.379,50.233l18.9,18.9,9.448,9.448-9.448,9.448-18.9,18.9c-4.724-4.724-4.964-13.933-.483-18.413l9.931-9.931L53.9,68.647C49.416,64.166,49.656,54.958,54.379,50.233ZM-62.194-9.652l18.9-18.9L-33.85-38l9.448,9.448,18.9,18.9c-4.724,4.724-13.932,4.962-18.413.483L-33.85-19.1l-9.931,9.931C-48.262-4.689-57.47-4.928-62.194-9.652ZM-5.428,166.729l-18.9,18.9-9.447,9.448-9.448-9.448-18.9-18.9c4.724-4.724,13.933-4.964,18.414-.483l9.931,9.931,9.93-9.931C-19.361,161.766-10.152,162.006-5.428,166.729Zm128.741-6.55h13.361v40.084c-6.681,0-13.361-6.341-13.361-12.679V173.541H109.269c-6.338,0-12.679-6.681-12.679-13.361Zm21.917,34.974,18.9-18.9c4.725,4.724,4.964,13.933.483,18.413l-9.93,9.931,9.93,9.931c4.481,4.481,4.242,13.689-.483,18.413l-18.9-18.9-9.448-9.448Z" transform="translate(35.007 4557.967)" fill="none" stroke="#3da3db" stroke-width="0.8"/>
    <path id="Path_2377" data-name="Path 2377" d="M7.689,3.845-18.6,30.133-44.887,3.845-18.6-22.444Z" transform="translate(145.857 4758.725)" fill="none" stroke="#ddad00" stroke-width="0.8"/>
    <path id="Path_2378" data-name="Path 2378" d="M-600.791,5860.788h-37.177V5823.61h37.177Zm88.849-27.646v27.646H-484.3Zm-88.849,67.73v-40.085h40.084c0,6.682-6.341,13.362-12.678,13.362h-14.044v14.045C-587.429,5894.531-594.11,5900.872-600.791,5900.872Zm72.689-67.613-18.9,18.9-9.447,9.447-9.448-9.447-18.9-18.9c4.725-4.724,13.933-4.964,18.414-.483l9.931,9.931,9.93-9.931C-542.035,5828.295-532.825,5828.535-528.1,5833.259Zm59.886,43.607,18.9,18.9,9.448,9.448-9.448,9.447-18.9,18.9c-4.725-4.724-4.964-13.933-.483-18.413l9.93-9.931-9.93-9.931C-473.179,5890.8-472.94,5881.59-468.216,5876.866Zm-141.208,37.715-18.9,18.9c-4.724-4.723-4.964-13.932-.483-18.412l9.931-9.931-9.931-9.931c-4.481-4.482-4.241-13.69.483-18.413l18.9,18.9,9.448,9.448Zm24.633-97.6,18.9-18.9,9.447-9.449,9.448,9.449,18.9,18.9c-4.724,4.725-13.933,4.965-18.414.484l-9.931-9.931-9.93,9.931C-570.858,5821.945-580.066,5821.7-584.79,5816.98Zm-59.807,116.5-18.9-18.9-9.447-9.448,9.447-9.448,18.9-18.9c4.723,4.723,4.964,13.931.482,18.413l-9.931,9.931,9.931,9.931C-639.634,5919.544-639.874,5928.752-644.6,5933.476Z" transform="translate(683.627 -1142.641)" fill="none" stroke="#3da3db" stroke-width="0.8"/>
    <path id="Path_2379" data-name="Path 2379" d="M.988-218.633,1.051,37.453H250.436V-218.633Z" transform="translate(0.168 4725.039)" fill="none"/>
  </g>
</svg>
