<svg xmlns="http://www.w3.org/2000/svg" width="185.56" height="45.727" viewBox="0 0 185.56 45.727">
  <g id="Group_15243" data-name="Group 15243" transform="translate(-1283.032 -4452.781)">
    <path id="Path_2389" data-name="Path 2389" d="M.736,1.592a7.076,7.076,0,0,0,3.226-.417A2.714,2.714,0,0,0,4.9.345a4.885,4.885,0,0,0,.78-2.968c0-2.015-.628-3.324-1.863-3.812a6.049,6.049,0,0,0-2.551-.319H-1.41V1.592ZM-4.3-9.294H.662c2.572,0,3.732.159,4.865.7A5.068,5.068,0,0,1,7.394-6.975,7.492,7.492,0,0,1,8.6-2.623C8.6.164,7.468,2.423,5.588,3.389c-1.162.586-2.2.748-4.7.748H-4.3Z" transform="translate(1312.258 4475.875)" fill="#fff"/>
    <path id="Path_2390" data-name="Path 2390" d="M.99.365c-2.258,0-3.843,1.747-3.843,4.229S-1.268,8.819.99,8.819,4.832,7.073,4.832,4.594,3.247.365.99.365M.99,11.3A6.511,6.511,0,0,1-5.78,4.594,6.538,6.538,0,0,1,.99-2.131,6.524,6.524,0,0,1,7.743,4.594,6.5,6.5,0,0,1,.99,11.3" transform="translate(1341.25 4468.711)" fill="#fff"/>
    <path id="Path_2391" data-name="Path 2391" d="M1.21,1.964A2.48,2.48,0,0,0,3.563-.608L-4.211-.6V-3.7L.214-3.7A2.387,2.387,0,0,0,2.48-6.169l-6.691,0V-8.928l5.1,0a2.455,2.455,0,0,0,2.328-2.544H-7.062V1.96Z" transform="translate(1303.414 4478.047)" fill="#fff"/>
    <path id="Path_2392" data-name="Path 2392" d="M1.617.448A4.239,4.239,0,0,0-.86-2.1a7.505,7.505,0,0,0-2.9-.513c-.253,0-.5.013-.747.029C-7.331-2.369-9.06-.928-9.06,1.284c0,2.036,1.192,3.228,3.7,3.708l1.395.268c2.593.5,3.043.711,3.043,1.58,0,.921-1.046,1.517-2.673,1.517a3.339,3.339,0,0,1-2.5-.869l-.032-.034-.139-.143-.006,0a2.2,2.2,0,0,0-3.154.011l-.011,0,.014.015a4.2,4.2,0,0,0,3.035,3.13,9.166,9.166,0,0,0,2.681.35c.283,0,.552-.013.808-.032C.191,10.569,2,9.078,2,6.685a3.6,3.6,0,0,0-.9-2.5A3.972,3.972,0,0,0-.222,3.32a13.206,13.206,0,0,0-2.742-.707c-2.909-.579-3.264-.747-3.264-1.557S-5.3-.254-3.818-.254A3.205,3.205,0,0,1-1.63.384l.064.064.03.034,0,.006A2.205,2.205,0,0,0,1.627.482Z" transform="translate(1292.637 4469.195)" fill="#fff"/>
    <path id="Path_2393" data-name="Path 2393" d="M1.351,1.462l-.016.015c-.071.073-.146.148-.224.214a3.474,3.474,0,0,1-2.283.723c-2.258,0-3.784-1.671-3.784-4.188S-3.391-6.04-1.119-6.04a3.5,3.5,0,0,1,2.205.69l.028.014a2.51,2.51,0,0,0,3.4-.2l0,0A5.053,5.053,0,0,0,2.448-7.67,7.124,7.124,0,0,0-1.08-8.535a8.756,8.756,0,0,0-.889.048A6.445,6.445,0,0,0-7.886-1.755,6.328,6.328,0,0,0-1.172,4.9c2.738,0,4.82-1.184,5.78-3.219l.008-.018a2.422,2.422,0,0,0-3.265-.2" transform="translate(1329.957 4475.117)" fill="#fff"/>
    <path id="Path_2394" data-name="Path 2394" d="M3.13,1.693A3.83,3.83,0,0,0,4.218,2.857a3.149,3.149,0,0,0,1.771.5A4.416,4.416,0,0,0,7.831,2.93,2.984,2.984,0,0,0,9.157,1.643.077.077,0,0,1,9.225,1.6h0a.078.078,0,0,1,.068.04,4.143,4.143,0,0,0,1.089,1.191,2.986,2.986,0,0,0,1.84.531h3.561V-5.46a3.232,3.232,0,0,0-2.978-2.893v1.308a.04.04,0,0,1,0,.011v7.4a.079.079,0,0,1-.078.08h-.419A2.342,2.342,0,0,1,10.329-.3a2.913,2.913,0,0,1-.543-1.81V-5.428A3.267,3.267,0,0,0,6.775-8.353v1.311a.077.077,0,0,1,0,.029l.009,5.969V.369a.079.079,0,0,1-.023.056A.074.074,0,0,1,6.7.449h0L6.2.441A2.344,2.344,0,0,1,4.22-.3a2.92,2.92,0,0,1-.543-1.81v-3.32A3.263,3.263,0,0,0,.67-8.353v7.308A2.306,2.306,0,0,1,.467.006.984.984,0,0,1-.46.448l-1.372,0-1-.035h0A2.452,2.452,0,0,1-4.8-.378a2.688,2.688,0,0,1-.532-1.275c-.287-4.157-4.514-8.229-8.534-8.229a3,3,0,0,0-2.688,2.757h2.33a6.374,6.374,0,0,1,5.87,5.869v.05c0,.049,0,.1,0,.149A2.2,2.2,0,0,1-8.587.094a1.06,1.06,0,0,1-.925.355h-5.924A3.162,3.162,0,0,0-18.27,3.358h8.98a4.155,4.155,0,0,0,1.948-.507A3.158,3.158,0,0,0-6.028,1.6a.078.078,0,0,1,.067-.039h0a.08.08,0,0,1,.068.037A3.9,3.9,0,0,0-4.75,2.79a3.356,3.356,0,0,0,1.708.554,1.315,1.315,0,0,0,.207.018H-.462A4.8,4.8,0,0,0,1.654,2.93a3.046,3.046,0,0,0,1.34-1.237.077.077,0,0,1,.068-.039h0a.077.077,0,0,1,.068.039" transform="translate(1452.809 4476.617)" fill="#fff"/>
    <path id="Path_2395" data-name="Path 2395" d="M0,0Z" transform="translate(1413.289 4480.059)" fill="#fff"/>
    <path id="Path_2396" data-name="Path 2396" d="M4.262,2.606A3.556,3.556,0,0,0,5.923,1.363a3.535,3.535,0,0,0,.65-1.651L6.6-.474a7.431,7.431,0,0,0,.077-1.776c-.014-.116-.033-.241-.057-.376a3.906,3.906,0,0,0-.294-1.026,5.9,5.9,0,0,0-.709-1.107,6.556,6.556,0,0,0-2.1-1.673c-.164-.085-.315-.158-.465-.221a11.97,11.97,0,0,0-4.81-.812h-3.4a.078.078,0,0,1-.074-.052A.079.079,0,0,1-5.214-7.6l4-3.433A3.237,3.237,0,0,0-.166-13.28a2.731,2.731,0,0,0-.577-1.93c-7.3,6.263-8.7,7.462-8.983,7.691v2.948h8.162a15.909,15.909,0,0,1,2.283.132,4.921,4.921,0,0,1,2.065.713,2.345,2.345,0,0,1,.7.705,2.229,2.229,0,0,1,.315,1.229,3.31,3.31,0,0,1-.082.692,1.493,1.493,0,0,1-.268.52l-.022.03a1.179,1.179,0,0,1-.952.5H-11.173a.078.078,0,0,1-.078-.078V-6.6a3.835,3.835,0,0,0-2.829-3.631,10.007,10.007,0,0,0-1.862-.273.076.076,0,0,1-.032-.009h-.468a8.548,8.548,0,0,0-6.418,2.922,8.283,8.283,0,0,0-1.4,2.564A8.115,8.115,0,0,0-24.8-.811a4.173,4.173,0,0,0,1.961,3.217,4.855,4.855,0,0,0,2.427.461h3.373l.279.006c.4.007,1.156.023,1.7.023a4.011,4.011,0,0,0,.621-.02l.02.067h.019l.034.006.039.007a2.616,2.616,0,0,1-.287.849,2.368,2.368,0,0,1-.891.882,3.63,3.63,0,0,1-1.261.424,9.5,9.5,0,0,1-1.313.1l-1.421,0h-1.025a3.091,3.091,0,0,0-2.77,2.841h5.214a10.012,10.012,0,0,0,2.586-.329A6.411,6.411,0,0,0-13.3,6.706a4.845,4.845,0,0,0,1.473-1.773,6.2,6.2,0,0,0,.574-2,.079.079,0,0,1,.078-.068H-.78c.287,0,.575,0,.863,0s.576,0,.864,0H1.38l.334.006c.192,0,.385.007.58.007a5.848,5.848,0,0,0,1.969-.268M-14.151-.127a.078.078,0,0,1-.078.078h-6.646a1.058,1.058,0,0,1-.9-.5,1.848,1.848,0,0,1-.238-1.058c0-.035,0-.07,0-.1s0-.064,0-.1a6.354,6.354,0,0,1,5.678-5.808c.183,0,.36-.006.548-.006a3.133,3.133,0,0,1,1.259.2,1.24,1.24,0,0,1,.371,1.01Z" transform="translate(1427.691 4477.113)" fill="#fff"/>
    <path id="Path_2397" data-name="Path 2397" d="M.878.874A2.793,2.793,0,0,1-.058,3.067a3.065,3.065,0,0,1-2.086.723,2.872,2.872,0,0,1-2.341-1A2.754,2.754,0,0,1-5.124.97,2.8,2.8,0,0,1-4.741-.5l1.32-.3A2.9,2.9,0,0,0-3.858.789,1.69,1.69,0,0,0-3.394,2.04a1.69,1.69,0,0,0,1.25.463A1.718,1.718,0,0,0-.91,2.067,1.572,1.572,0,0,0-.453.874V-4.393L.878-5.1Z" transform="translate(1407.691 4493.039)" fill="#fff"/>
    <path id="Path_2398" data-name="Path 2398" d="M6.722.313V3.048a1.942,1.942,0,0,1-.595,1.511,1.94,1.94,0,0,1-1.363.478H2A1.974,1.974,0,0,1,.711,4.622a1.98,1.98,0,0,1-1.288.415H-3.343a1.973,1.973,0,0,1-1.286-.415,1.98,1.98,0,0,1-1.288.415H-37.284a1.87,1.87,0,0,1-1.5-.617,2.024,2.024,0,0,1-.458-1.372V-1.123l1.34-.7V2.983a.836.836,0,0,0,.17.59.773.773,0,0,0,.575.177H-6.045a.775.775,0,0,0,.575-.177.836.836,0,0,0,.17-.59V1.016l1.34-.7v2.67a.836.836,0,0,0,.17.59.778.778,0,0,0,.576.177H-.7a.774.774,0,0,0,.574-.177.831.831,0,0,0,.17-.59V1.016l1.341-.7v2.67a.825.825,0,0,0,.171.59.772.772,0,0,0,.574.177H4.637a.768.768,0,0,0,.574-.177.831.831,0,0,0,.17-.59V1.016Z" transform="translate(1449.727 4489.758)" fill="#fff"/>
    <path id="Path_2399" data-name="Path 2399" d="M.177.027A.688.688,0,0,0-.329-.159.689.689,0,0,0-.839.033a.67.67,0,0,0-.192.5.7.7,0,0,0,.192.521.693.693,0,0,0,.509.191A.62.62,0,0,0,.363.533.677.677,0,0,0,.177.027M1.8.027a.684.684,0,0,0-.5-.186A.7.7,0,0,0,.794.033a.664.664,0,0,0-.2.5.707.707,0,0,0,.192.515.678.678,0,0,0,.511.2A.62.62,0,0,0,1.991.533.682.682,0,0,0,1.8.027" transform="translate(1444.063 4487.891)" fill="#fff"/>
    <path id="Path_2400" data-name="Path 2400" d="M.177.027A.687.687,0,0,0-.329-.158a.615.615,0,0,0-.7.691.7.7,0,0,0,.191.521.685.685,0,0,0,.511.191A.62.62,0,0,0,.362.533.687.687,0,0,0,.177.027m1.639,0a.686.686,0,0,0-.5-.185.616.616,0,0,0-.7.691A.7.7,0,0,0,.8,1.054a.687.687,0,0,0,.512.191A.619.619,0,0,0,2,.533.687.687,0,0,0,1.815.027" transform="translate(1449.426 4495.922)" fill="#fff"/>
    <path id="Path_2401" data-name="Path 2401" d="M.177.027A.683.683,0,0,0-.329-.158.688.688,0,0,0-.839.033a.678.678,0,0,0-.192.5.7.7,0,0,0,.192.521.684.684,0,0,0,.509.191A.62.62,0,0,0,.363.533.687.687,0,0,0,.177.027" transform="translate(1455.992 4495.922)" fill="#fff"/>
    <path id="Path_2402" data-name="Path 2402" d="M1.443.7V.835a1.931,1.931,0,0,1-.6,1.5,1.971,1.971,0,0,1-1.352.458H-6.463a1.874,1.874,0,0,1-1.5-.617A2.024,2.024,0,0,1-8.421.8V-3.366l1.341-.7V.74a.833.833,0,0,0,.17.59.772.772,0,0,0,.574.176H-.643A.653.653,0,0,0,.1.771V.709A1.154,1.154,0,0,0-.341-.228,1.757,1.757,0,0,0-1.495-.59a3.36,3.36,0,0,0-1.128.213V-1.665l2.16-2.4H.887L-1.047-1.9a2.866,2.866,0,0,1,1.4.479A2.4,2.4,0,0,1,1.443.7" transform="translate(1466.785 4492)" fill="#fff"/>
    <path id="Path_2403" data-name="Path 2403" d="M.747.871a2.769,2.769,0,0,1-2.023.861A2.779,2.779,0,0,1-3.767.487a3.707,3.707,0,0,1-.591-2.1A3.771,3.771,0,0,1-3.549-4.13a2.74,2.74,0,0,1,2.221-.955,3.1,3.1,0,0,1,1.992.84l-.529.862a2.4,2.4,0,0,0-1.359-.54,1.483,1.483,0,0,0-1.318.717,2.842,2.842,0,0,0-.405,1.6A2.384,2.384,0,0,0-2.47-.114,1.633,1.633,0,0,0-1.111.54,2.6,2.6,0,0,0,.217.051Z" transform="translate(1287.391 4493.523)" fill="#fff"/>
    <path id="Path_2404" data-name="Path 2404" d="M.354,0H1.5L3.913,6.568H2.532Q2.356,6.05,2.1,5.2H-.259c-.1.313-.245.768-.446,1.37H-2.064ZM.934,1.774q-.29.82-.8,2.3H1.713q-.488-1.432-.779-2.3" transform="translate(1295.617 4488.563)" fill="#fff"/>
    <path id="Path_2405" data-name="Path 2405" d="M0,.979V-5.579c.1-.021.37-.048.82-.083s.792-.052,1.027-.052q2.511,0,2.511,2.054a2.1,2.1,0,0,1-.871,1.868,2.341,2.341,0,0,1-1.37.4,1.959,1.959,0,0,1-.757-.082V.979ZM1.36-4.552V-2.57a1.887,1.887,0,0,0,.673.1.8.8,0,0,0,.655-.3,1.272,1.272,0,0,0,.238-.815q0-1.047-.923-1.048a1.614,1.614,0,0,0-.643.073" transform="translate(1305.363 4494.152)" fill="#fff"/>
    <path id="Path_2407" data-name="Path 2407" d="M483.232,5654.227h1.338v6.565h-1.338Z" transform="translate(832.684 -1165.664)" fill="#fff"/>
    <path id="Path_2408" data-name="Path 2408" d="M.278.96V-4.518h-1.9V-5.606H3.691v1.088H1.647V.96Z" transform="translate(1324.809 4494.168)" fill="#fff"/>
    <path id="Path_2409" data-name="Path 2409" d="M.354,0H1.5L3.913,6.568H2.532Q2.356,6.05,2.1,5.2H-.259c-.1.313-.245.768-.446,1.37H-2.064ZM.934,1.774q-.29.82-.8,2.3H1.713q-.488-1.432-.779-2.3" transform="translate(1335.152 4488.563)" fill="#fff"/>
    <path id="Path_2411" data-name="Path 2411" d="M0,.96V-5.606H1.361V-.128H3.818V.96Z" transform="translate(1344.895 4494.168)" fill="#fff"/>
    <path id="Path_2412" data-name="Path 2412" d="M2.621,1.31v8.96H21c4.249,0,8.5-4.48,8.5-8.96Zm17.92,8.96h-8.96V28.648c0,4.249,4.48,8.5,8.96,8.5Zm-8.96,17.92V19.23H-6.8c-4.249,0-8.5,4.48-8.5,8.96Zm-17.92-8.96h8.96V.852c0-4.249-4.48-8.5-8.96-8.5Z" transform="translate(1368.789 4460.895)" fill="none" stroke="#fff" stroke-width="0.928"/>
  </g>
</svg>
