<svg xmlns="http://www.w3.org/2000/svg" width="27.008" height="27.008" viewBox="0 0 27.008 27.008">
  <path id="Path_2386" data-name="Path 2386" d="M0,1.97A13.5,13.5,0,1,1,13.356,15.508,13.505,13.505,0,0,1,0,1.97M21.067,8.352V8.023c0-1.6,0-3.2,0-4.8A10.656,10.656,0,0,0,21,2.081a3.271,3.271,0,0,0-3.188-3.1A2.988,2.988,0,0,0,15.007.21c-.048.064-.1.124-.2.242V-.791H11.78V8.351h3.033V8.016c0-1.639.006-3.277,0-4.917A1.723,1.723,0,0,1,15.3,1.875a1.583,1.583,0,0,1,1.558-.47A1.33,1.33,0,0,1,17.915,2.5a4.626,4.626,0,0,1,.122,1.047c.013,1.491.006,2.983.006,4.475v.33Zm-14.02,0h2.984V-.8H7.047Zm0-9.157,1.5-4.435A1.606,1.606,0,0,0,6.921-4.174,1.568,1.568,0,0,0,7.636-2.3a1.9,1.9,0,0,0,2.285-.385,1.526,1.526,0,0,0,.17-1.688A1.557,1.557,0,0,0,8.546-5.24" transform="translate(0 11.5)" fill="#fff"/>
</svg>
