<svg xmlns="http://www.w3.org/2000/svg" xmlns:xlink="http://www.w3.org/1999/xlink" width="251.965" height="62.609" viewBox="0 0 251.965 62.609">
  <defs>
    <clipPath id="clip-path">
      <path id="Path_2449" data-name="Path 2449" d="M0,0H251.965V-62.609H0Z" fill="none"/>
    </clipPath>
    <clipPath id="clip-path-2">
      <path id="Path_2451" data-name="Path 2451" d="M119.931-49.311v12.086h24.79c5.732,0,11.469-6.043,11.469-12.086H119.931Z" fill="none"/>
    </clipPath>
    <linearGradient id="linear-gradient" x1="0.38" y1="0.691" x2="0.524" y2="0.691" gradientUnits="objectBoundingBox">
      <stop offset="0" stop-color="#054e9d"/>
      <stop offset="0.1" stop-color="#054e9d"/>
      <stop offset="0.2" stop-color="#054e9d"/>
      <stop offset="0.3" stop-color="#054e9d"/>
      <stop offset="0.4" stop-color="#054e9d"/>
      <stop offset="0.5" stop-color="#054e9d"/>
      <stop offset="0.6" stop-color="#054e9d"/>
      <stop offset="0.7" stop-color="#054e9d"/>
      <stop offset="0.8" stop-color="#054e9d"/>
      <stop offset="0.9" stop-color="#0b4180"/>
      <stop offset="1" stop-color="#103666"/>
    </linearGradient>
    <clipPath id="clip-path-3">
      <path id="Path_2453" data-name="Path 2453" d="M132.018-37.225v24.79c0,5.733,6.043,11.468,12.086,11.468h0V-37.225Z" fill="none"/>
    </clipPath>
    <linearGradient id="linear-gradient-2" x1="0.015" y1="0.548" x2="0.595" y2="0.548" gradientUnits="objectBoundingBox">
      <stop offset="0" stop-color="#e1a834"/>
      <stop offset="0.1" stop-color="#e1a834"/>
      <stop offset="0.2" stop-color="#e1a834"/>
      <stop offset="0.3" stop-color="#e1a834"/>
      <stop offset="0.4" stop-color="#e1a834"/>
      <stop offset="0.5" stop-color="#e1a834"/>
      <stop offset="0.6" stop-color="#e1a834"/>
      <stop offset="0.7" stop-color="#e1a834"/>
      <stop offset="0.8" stop-color="#e1a834"/>
      <stop offset="0.9" stop-color="#cd9931"/>
      <stop offset="1" stop-color="#ba8c2e"/>
    </linearGradient>
    <clipPath id="clip-path-4">
      <path id="Path_2455" data-name="Path 2455" d="M107.228-25.138c-5.733,0-11.469,6.043-11.469,12.085h36.259V-25.138Z" fill="none"/>
    </clipPath>
    <linearGradient id="linear-gradient-3" x1="0.38" y1="0.695" x2="0.524" y2="0.695" xlink:href="#linear-gradient"/>
    <clipPath id="clip-path-5">
      <path id="Path_2457" data-name="Path 2457" d="M107.845-25.139h12.086V-49.928c0-5.733-6.043-11.468-12.086-11.468h0Z" fill="none"/>
    </clipPath>
    <linearGradient id="linear-gradient-4" x1="0.019" y1="0.548" x2="0.598" y2="0.548" xlink:href="#linear-gradient-2"/>
  </defs>
  <g id="Group_6196" data-name="Group 6196" transform="translate(0 62.609)">
    <g id="Group_6187" data-name="Group 6187" clip-path="url(#clip-path)">
      <g id="Group_6167" data-name="Group 6167" transform="translate(34.341 -43.409)">
        <path id="Path_2427" data-name="Path 2427" d="M0,0H6.69c3.469,0,5.033.215,6.563.946a6.843,6.843,0,0,1,2.519,2.182A10.112,10.112,0,0,1,17.4,9c0,3.759-1.533,6.806-4.069,8.11-1.567.788-2.971,1.009-6.341,1.009H0ZM6.79,14.685c2.541,0,3.445-.136,4.35-.563A3.651,3.651,0,0,0,12.4,13a6.586,6.586,0,0,0,1.052-4c0-2.718-.847-4.484-2.513-5.142A8.151,8.151,0,0,0,7.5,3.426H3.9V14.685Z" fill="#1e1d1c"/>
      </g>
      <g id="Group_6168" data-name="Group 6168" transform="translate(80.579 -25.291)">
        <path id="Path_2428" data-name="Path 2428" d="M0,0A8.784,8.784,0,0,1-9.132-9.045,8.82,8.82,0,0,1,0-18.118,8.8,8.8,0,0,1,9.11-9.045,8.766,8.766,0,0,1,0,0M0-14.751c-3.046,0-5.183,2.357-5.183,5.706s2.137,5.7,5.183,5.7S5.181-5.7,5.181-9.045,3.044-14.751,0-14.751" fill="#1e1d1c"/>
      </g>
      <g id="Group_6169" data-name="Group 6169" transform="translate(29.84 -25.291)">
        <path id="Path_2429" data-name="Path 2429" d="M0,0A3.347,3.347,0,0,0,3.175-3.469l-10.487.01V-7.648l5.969.01a3.221,3.221,0,0,0,3.057-3.333l-9.026,0v-3.725l6.884.007a3.312,3.312,0,0,0,3.141-3.432H-11.158V-.007Z" fill="#1e1d1c"/>
      </g>
      <g id="Group_6170" data-name="Group 6170" transform="translate(15.851 -39.277)">
        <path id="Path_2430" data-name="Path 2430" d="M0,0A5.717,5.717,0,0,0-3.342-3.44a10.141,10.141,0,0,0-3.917-.692c-.342,0-.68.019-1.009.04-3.8.292-6.135,2.236-6.135,5.221,0,2.745,1.609,4.354,4.988,5l1.881.361c3.5.676,4.1.96,4.1,2.13,0,1.243-1.411,2.047-3.6,2.047A4.5,4.5,0,0,1-10.4,9.5l-.043-.044-.188-.193-.007-.006a2.965,2.965,0,0,0-4.255.013l-.015.006.019.022a5.663,5.663,0,0,0,4.094,4.22,12.364,12.364,0,0,0,3.617.472c.381,0,.743-.017,1.09-.042,4.17-.293,6.612-2.3,6.612-5.531A4.851,4.851,0,0,0-.69,5.04,5.344,5.344,0,0,0-2.48,3.874a17.979,17.979,0,0,0-3.7-.955c-3.925-.779-4.4-1.007-4.4-2.1S-9.325-.946-7.33-.946a4.32,4.32,0,0,1,2.95.859L-4.293,0l.042.046.005.008A2.976,2.976,0,0,0,.015.046Z" fill="#1e1d1c"/>
      </g>
      <g id="Group_6171" data-name="Group 6171" transform="translate(65.834 -29.923)">
        <path id="Path_2431" data-name="Path 2431" d="M0,0-.021.021c-.1.1-.2.2-.3.288a4.685,4.685,0,0,1-3.08.976c-3.047,0-5.105-2.254-5.105-5.65s2.11-5.753,5.177-5.753a4.723,4.723,0,0,1,2.975.929l.037.019a3.385,3.385,0,0,0,4.584-.275l0-.007a6.809,6.809,0,0,0-2.779-2.865,9.6,9.6,0,0,0-4.76-1.169,11.4,11.4,0,0,0-1.2.066,8.693,8.693,0,0,0-7.982,9.081c0,5.368,3.646,8.971,9.058,8.971,3.693,0,6.5-1.6,7.8-4.342L4.405.267A3.267,3.267,0,0,0,0,0" fill="#1e1d1c"/>
      </g>
      <g id="Group_6172" data-name="Group 6172" transform="translate(233.95 -27.587)">
        <path id="Path_2432" data-name="Path 2432" d="M0,0A5.146,5.146,0,0,0,1.468,1.57a4.232,4.232,0,0,0,2.389.677,5.968,5.968,0,0,0,2.485-.578A4.016,4.016,0,0,0,8.13-.069a.106.106,0,0,1,.091-.056h0a.106.106,0,0,1,.092.053,5.541,5.541,0,0,0,1.47,1.608,4.017,4.017,0,0,0,2.481.716h4.8v-11.9a4.357,4.357,0,0,0-4.016-3.9v1.763a.059.059,0,0,1,0,.014v9.987a.105.105,0,0,1-.105.106h-.566A3.162,3.162,0,0,1,9.711-2.691a3.939,3.939,0,0,1-.733-2.441V-8.159a.041.041,0,0,1,0-.011V-9.6a4.406,4.406,0,0,0-4.062-3.944v1.768a.134.134,0,0,1-.007.039l.013,8.051v1.906a.1.1,0,0,1-.031.076.109.109,0,0,1-.075.03h0l-.676-.009a3.166,3.166,0,0,1-2.667-1A3.939,3.939,0,0,1,.739-5.132V-8.538a.041.041,0,0,1,0-.011V-9.612a4.4,4.4,0,0,0-4.055-3.937v9.858a3.105,3.105,0,0,1-.274,1.417,1.329,1.329,0,0,1-1.251.595l-1.851,0-1.342-.046A3.3,3.3,0,0,1-10.7-2.793a3.614,3.614,0,0,1-.716-1.721c-.388-5.606-6.09-11.1-11.512-11.1a4.047,4.047,0,0,0-3.627,3.719h3.144c3.907,0,7.9,4,7.917,7.918v.067c0,.066,0,.132,0,.2a2.97,2.97,0,0,1-.318,1.551,1.427,1.427,0,0,1-1.248.477h-7.992a4.268,4.268,0,0,0-3.822,3.926h12.114a5.607,5.607,0,0,0,2.628-.683A4.254,4.254,0,0,0-12.354-.122a.106.106,0,0,1,.092-.053h0a.1.1,0,0,1,.09.051,5.273,5.273,0,0,0,1.543,1.6,4.522,4.522,0,0,0,2.3.747,1.627,1.627,0,0,0,.279.024h3.2a6.464,6.464,0,0,0,2.854-.584A4.1,4.1,0,0,0-.183,0,.1.1,0,0,1-.092-.052h0A.107.107,0,0,1,0,0" fill="#1e1d1c"/>
      </g>
      <g id="Group_6173" data-name="Group 6173" transform="translate(176.417 -25.229)">
        <path id="Path_2433" data-name="Path 2433" d="M0,0" fill="#1e1d1c"/>
      </g>
      <g id="Group_6174" data-name="Group 6174" transform="translate(176.758 -29.373)">
        <path id="Path_2434" data-name="Path 2434" d="M0,0A.105.105,0,0,1-.106.106H-9.071a1.424,1.424,0,0,1-1.211-.674A2.493,2.493,0,0,1-10.6-2c0-.047,0-.094,0-.14s0-.087,0-.13c.012-3.787,3.806-7.667,7.66-7.835.246,0,.485-.008.738-.008a4.224,4.224,0,0,1,1.7.277A1.672,1.672,0,0,1,0-8.47ZM24.837,3.685a4.77,4.77,0,0,0,2.24-1.675,4.784,4.784,0,0,0,.878-2.227l.031-.251a10,10,0,0,0,.1-2.394c-.017-.156-.043-.326-.076-.507a5.244,5.244,0,0,0-.4-1.384,8,8,0,0,0-.957-1.493A8.859,8.859,0,0,0,23.828-8.5c-.221-.114-.426-.212-.627-.3A16.167,16.167,0,0,0,16.711-9.9H12.123a.108.108,0,0,1-.1-.07.107.107,0,0,1,.03-.117l5.4-4.631a4.361,4.361,0,0,0,1.409-3.028,3.678,3.678,0,0,0-.779-2.605C8.237-11.9,6.351-10.279,5.968-9.969v3.975H16.977a21.591,21.591,0,0,1,3.079.178,6.679,6.679,0,0,1,2.786.962,3.169,3.169,0,0,1,.939.952,2.983,2.983,0,0,1,.425,1.657,4.378,4.378,0,0,1-.11.934,1.974,1.974,0,0,1-.363.7L23.7-.568A1.59,1.59,0,0,1,22.42.106H4.015A.105.105,0,0,1,3.91,0V-8.732a5.176,5.176,0,0,0-3.816-4.9A13.6,13.6,0,0,0-2.417-14a.124.124,0,0,1-.043-.011h-.632a11.524,11.524,0,0,0-8.657,3.942,11.162,11.162,0,0,0-1.886,3.458,10.929,10.929,0,0,0-.727,5.686,5.618,5.618,0,0,0,2.644,4.34,6.547,6.547,0,0,0,3.273.623h4.55l.377.007c.544.011,1.559.032,2.294.032a5.5,5.5,0,0,0,.837-.026l.026.089.011,0h.008l.007,0,.045.008.052.009A3.456,3.456,0,0,1-.625,5.308a3.178,3.178,0,0,1-1.2,1.19,4.849,4.849,0,0,1-1.7.572A12.746,12.746,0,0,1-5.3,7.206l-1.916,0H-8.6a4.17,4.17,0,0,0-3.737,3.834h5.118l1.915,0a13.435,13.435,0,0,0,3.488-.444A8.626,8.626,0,0,0,1.148,9.218,6.54,6.54,0,0,0,3.136,6.826a8.342,8.342,0,0,0,.774-2.7.106.106,0,0,1,.1-.092H18.036c.388,0,.775,0,1.163-.005s.778-.005,1.166-.005c.195,0,.39,0,.585,0l.449.007c.26.005.52.009.782.009a7.855,7.855,0,0,0,2.656-.362" fill="#1e1d1c"/>
      </g>
      <path id="Path_2435" data-name="Path 2435" d="M119.932-37.225h12.086v12.086H119.932Zm0,12.087,0-24.173v-.617c0-5.733-6.044-11.468-12.087-11.468v36.258h-.617c-5.732,0-11.469,6.042-11.469,12.085h36.258v.618c0,5.732,6.044,11.468,12.087,11.468V-37.225h.617c5.732,0,11.469-6.043,11.469-12.086Z" fill="#e1a834"/>
      <g id="Group_6175" data-name="Group 6175" transform="translate(170.053 -6.54)">
        <path id="Path_2436" data-name="Path 2436" d="M0,0A3.759,3.759,0,0,1-1.263,2.957a4.123,4.123,0,0,1-2.813.975A3.874,3.874,0,0,1-7.233,2.584,3.712,3.712,0,0,1-8.094.13a3.768,3.768,0,0,1,.516-1.981l1.78-.4A3.925,3.925,0,0,0-6.387-.114a2.28,2.28,0,0,0,.625,1.686A2.28,2.28,0,0,0-4.076,2.2a2.31,2.31,0,0,0,1.665-.589A2.115,2.115,0,0,0-1.794,0V-7.1L0-8.066Z" fill="#054e9d"/>
      </g>
      <g id="Group_6176" data-name="Group 6176" transform="translate(234.638 -11.721)">
        <path id="Path_2437" data-name="Path 2437" d="M0,0V3.689A2.617,2.617,0,0,1-.8,5.726a2.614,2.614,0,0,1-1.839.646h-3.73a2.669,2.669,0,0,1-1.736-.559,2.675,2.675,0,0,1-1.738.559h-3.73a2.668,2.668,0,0,1-1.737-.559,2.675,2.675,0,0,1-1.738.559H-59.36a2.525,2.525,0,0,1-2.023-.832A2.727,2.727,0,0,1-62,3.689V-1.937l1.808-.947V3.6a1.123,1.123,0,0,0,.229.8,1.045,1.045,0,0,0,.775.237h41.967a1.046,1.046,0,0,0,.775-.237,1.123,1.123,0,0,0,.229-.8V.948L-14.41,0V3.6a1.119,1.119,0,0,0,.23.8,1.049,1.049,0,0,0,.776.237h3.387A1.048,1.048,0,0,0-9.242,4.4a1.124,1.124,0,0,0,.228-.8V.948L-7.2,0V3.6a1.114,1.114,0,0,0,.231.8,1.045,1.045,0,0,0,.775.237h3.386A1.042,1.042,0,0,0-2.038,4.4a1.123,1.123,0,0,0,.23-.8V.948Z" fill="#054e9d"/>
      </g>
      <g id="Group_6177" data-name="Group 6177" transform="translate(220.365 -14.627)">
        <path id="Path_2438" data-name="Path 2438" d="M0,0A.921.921,0,0,0-.682-.251a.929.929,0,0,0-.681.259.893.893,0,0,0-.266.674.954.954,0,0,0,.26.7.911.911,0,0,0,.687.265A.837.837,0,0,0,.252.682.918.918,0,0,0,0,0M-2.2,0a.921.921,0,0,0-.682-.251.922.922,0,0,0-.688.259.907.907,0,0,0-.259.674.955.955,0,0,0,.259.7.933.933,0,0,0,.688.257A.836.836,0,0,0-1.945.682.913.913,0,0,0-2.2,0" fill="#054e9d"/>
      </g>
      <g id="Group_6178" data-name="Group 6178" transform="translate(227.614 -3.792)">
        <path id="Path_2439" data-name="Path 2439" d="M0,0A.927.927,0,0,0-.682-.25a.83.83,0,0,0-.947.932.951.951,0,0,0,.258.7.929.929,0,0,0,.689.257A.836.836,0,0,0,.25.682.923.923,0,0,0,0,0M-2.211,0a.925.925,0,0,0-.681-.25.83.83,0,0,0-.947.932.958.958,0,0,0,.257.7.931.931,0,0,0,.69.257A.836.836,0,0,0-1.961.682.927.927,0,0,0-2.211,0" fill="#054e9d"/>
      </g>
      <g id="Group_6179" data-name="Group 6179" transform="translate(234.258 -3.792)">
        <path id="Path_2440" data-name="Path 2440" d="M0,0A.922.922,0,0,0-.682-.25.925.925,0,0,0-1.37.008a.91.91,0,0,0-.259.674.952.952,0,0,0,.259.7.925.925,0,0,0,.688.257A.836.836,0,0,0,.251.682.928.928,0,0,0,0,0" fill="#054e9d"/>
      </g>
      <g id="Group_6180" data-name="Group 6180" transform="translate(250.528 -8.177)">
        <path id="Path_2441" data-name="Path 2441" d="M0,0V.188A2.6,2.6,0,0,1-.805,2.211a2.653,2.653,0,0,1-1.822.617h-8.037A2.529,2.529,0,0,1-12.688,2,2.731,2.731,0,0,1-13.3.145V-5.481l1.807-.947V.059a1.123,1.123,0,0,0,.229.8,1.045,1.045,0,0,0,.775.237h7.679A.881.881,0,0,0-1.81.1V.016a1.551,1.551,0,0,0-.6-1.263,2.371,2.371,0,0,0-1.557-.489,4.531,4.531,0,0,0-1.521.288V-3.186l2.912-3.242H-.748L-3.359-3.5a3.855,3.855,0,0,1,1.895.645A3.244,3.244,0,0,1,0,0" fill="#054e9d"/>
      </g>
      <g id="Group_6181" data-name="Group 6181" transform="translate(7.603 -5.89)">
        <path id="Path_2442" data-name="Path 2442" d="M0,0A3.733,3.733,0,0,1-2.729,1.162,3.744,3.744,0,0,1-6.088-.518a5,5,0,0,1-.8-2.827,5.081,5.081,0,0,1,1.092-3.4,3.69,3.69,0,0,1,3-1.288A4.186,4.186,0,0,1-.111-6.9L-.825-5.739a3.235,3.235,0,0,0-1.834-.727A2,2,0,0,0-4.437-5.5a3.854,3.854,0,0,0-.546,2.156A3.215,3.215,0,0,0-4.339-1.33a2.205,2.205,0,0,0,1.834.882A3.5,3.5,0,0,0-.714-1.106Z" fill="#054e9d"/>
      </g>
      <g id="Group_6182" data-name="Group 6182" transform="translate(18.955 -11.362)">
        <path id="Path_2443" data-name="Path 2443" d="M0,0Q-.392,1.105-1.078,3.106H1.05Q.392,1.176,0,0M-.784-2.394H.756l3.261,8.86H2.155q-.237-.7-.587-1.847H-1.61q-.2.63-.6,1.847H-4.045Z" fill="#054e9d"/>
      </g>
      <g id="Group_6183" data-name="Group 6183" transform="translate(32.671 -12.356)">
        <path id="Path_2444" data-name="Path 2444" d="M0,0V2.673a2.562,2.562,0,0,0,.91.141,1.068,1.068,0,0,0,.881-.4,1.7,1.7,0,0,0,.322-1.1Q2.113-.1.868-.1A2.181,2.181,0,0,0,0,0M-1.833,7.46V-1.386q.195-.042,1.1-.111T.657-1.568q3.388,0,3.388,2.772A2.829,2.829,0,0,1,2.87,3.723a3.153,3.153,0,0,1-1.848.546A2.659,2.659,0,0,1,0,4.158v3.3Z" fill="#054e9d"/>
      </g>
      <path id="Path_2445" data-name="Path 2445" d="M46.878-4.9h-1.8v-8.86h1.8Z" fill="#054e9d"/>
      <g id="Group_6184" data-name="Group 6184" transform="translate(57.445 -12.286)">
        <path id="Path_2446" data-name="Path 2446" d="M0,0H-2.561V-1.47H4.605V0H1.848V7.39H0Z" fill="#054e9d"/>
      </g>
      <g id="Group_6185" data-name="Group 6185" transform="translate(72.282 -11.362)">
        <path id="Path_2447" data-name="Path 2447" d="M0,0Q-.393,1.105-1.078,3.106H1.05Q.392,1.176,0,0M-.784-2.394H.756l3.261,8.86H2.155q-.237-.7-.588-1.847H-1.61q-.2.63-.6,1.847H-4.045Z" fill="#054e9d"/>
      </g>
      <g id="Group_6186" data-name="Group 6186" transform="translate(84.165 -4.896)">
        <path id="Path_2448" data-name="Path 2448" d="M0,0V-8.86H1.833v7.39H5.151V0Z" fill="#054e9d"/>
      </g>
    </g>
    <g id="Group_6189" data-name="Group 6189" clip-path="url(#clip-path-2)">
      <g id="Group_6188" data-name="Group 6188" transform="translate(156.189 -43.268) rotate(180)">
        <path id="Path_2450" data-name="Path 2450" d="M156.189,19.342H-95.776V-43.268H156.189Z" fill="url(#linear-gradient)"/>
      </g>
    </g>
    <g id="Group_6191" data-name="Group 6191" clip-path="url(#clip-path-3)">
      <g id="Group_6190" data-name="Group 6190" transform="translate(138.06 -0.966) rotate(-90)">
        <path id="Path_2452" data-name="Path 2452" d="M61.643-138.06V113.9H-.966V-138.06Z" fill="url(#linear-gradient-2)"/>
      </g>
    </g>
    <g id="Group_6193" data-name="Group 6193" clip-path="url(#clip-path-4)">
      <g id="Group_6192" data-name="Group 6192" transform="translate(95.759 -19.096)">
        <path id="Path_2454" data-name="Path 2454" d="M-95.759-43.514H156.206V19.1H-95.759Z" fill="url(#linear-gradient-3)"/>
      </g>
    </g>
    <g id="Group_6195" data-name="Group 6195" clip-path="url(#clip-path-5)">
      <g id="Group_6194" data-name="Group 6194" transform="translate(113.888 -61.397) rotate(90)">
        <path id="Path_2456" data-name="Path 2456" d="M-1.213,113.888V-138.077H61.4V113.888Z" fill="url(#linear-gradient-4)"/>
      </g>
    </g>
  </g>
</svg>
