<svg xmlns="http://www.w3.org/2000/svg" width="27.008" height="27.009" viewBox="0 0 27.008 27.009">
  <path id="Path_2385" data-name="Path 2385" d="M1.974,0a13.5,13.5,0,0,1,.012,27.009A13.5,13.5,0,1,1,1.974,0M-5.961,19.444c.074.047.146.1.221.139a9.491,9.491,0,0,0,4.3,1.288,9.217,9.217,0,0,0,5.221-1.135A9.638,9.638,0,0,0,8.77,11.241.892.892,0,0,1,9.1,10.5c.477-.412.895-.891,1.338-1.343-.02-.025-.041-.049-.061-.075-.2.068-.392.142-.591.2s-.387.11-.583.155-.391.075-.588.112A3.806,3.806,0,0,0,9.956,7.8c-.6.214-1.182.423-1.765.638A.5.5,0,0,1,7.627,8.3a3.238,3.238,0,0,0-3.415-.65A3.194,3.194,0,0,0,2.037,10.33a9.164,9.164,0,0,0-.009,1.284A9.754,9.754,0,0,1-4.945,8.08,3.228,3.228,0,0,0-5.39,9.937a3.4,3.4,0,0,0,1.435,2.618c-.015.029-.029.057-.043.087l-1.443-.4a3.467,3.467,0,0,0,2.653,3.3c0,.025-.007.049-.012.074H-4.242a3.5,3.5,0,0,0,3.173,2.361,7.162,7.162,0,0,1-4.892,1.468" transform="translate(11.525)" fill="#fff"/>
</svg>
