<svg xmlns="http://www.w3.org/2000/svg" width="27.009" height="27.009" viewBox="0 0 27.009 27.009">
  <path id="Path_2387" data-name="Path 2387" d="M3.949,2.039A13.506,13.506,0,0,1-10.19,15.09,13.479,13.479,0,0,1-23.038,1.048,13.484,13.484,0,0,1-8.984-11.886,13.51,13.51,0,0,1,3.949,2.039M-9.583-3.727c-1.938.1-3.867.186-5.793.307a1.827,1.827,0,0,0-1.8,1.933q-.011,3.018,0,6.038A1.863,1.863,0,0,0-15.3,6.523c1.414.083,2.829.2,4.242.193,2.414-.018,4.827-.105,7.238-.2a1.805,1.805,0,0,0,1.815-1.87q.026-3.115,0-6.231A1.782,1.782,0,0,0-3.757-3.416c-1.943-.118-3.887-.21-5.827-.312" transform="translate(23.052 11.901)" fill="#fff"/>
</svg>
